<?xml version="1.0" encoding="iso-8859-1"?>
<!-- Generator: Adobe Illustrator 17.1.0, SVG Export Plug-In . SVG Version: 6.00 Build 0)  -->
<!DOCTYPE svg PUBLIC "-//W3C//DTD SVG 1.1//EN" "http://www.w3.org/Graphics/SVG/1.1/DTD/svg11.dtd">
<svg version="1.1" id="Capa_1" xmlns="http://www.w3.org/2000/svg" xmlns:xlink="http://www.w3.org/1999/xlink" x="0px" y="0px"
	 viewBox="0 0 439.664 439.664" style="enable-background:new 0 0 439.664 439.664;" xml:space="preserve">
<g>
	<path d="M219.84,141.94c39.123,0,70.952-31.838,70.952-70.973C290.792,31.835,258.963,0,219.84,0
		c-39.132,0-70.968,31.835-70.968,70.967C148.872,110.102,180.708,141.94,219.84,141.94z"/>
	<path d="M386.229,276.229h-1.932l-87.592-112.767c-5.578-8.013-14.737-12.794-24.517-12.794c-0.179,0-104.454,0-104.716,0
		c-9.779,0-18.939,4.781-24.516,12.793L55.362,276.229h-1.926c-11.049,0-20.038,8.989-20.038,20.038v123.359
		c0,11.049,8.989,20.038,20.038,20.038h332.793c11.049,0,20.038-8.989,20.038-20.038V296.267
		C406.266,285.218,397.278,276.229,386.229,276.229z M147.111,253.473v22.756h-18.253L147.111,253.473z M292.55,253.468
		l18.255,22.761H292.55V253.468z M383.615,417.012H56.05V298.881h327.565V417.012z"/>
	<path d="M153.595,403.681c7.706,0,15.186-2.317,21.631-6.701c2.829-1.924,3.562-5.777,1.638-8.605
		c-1.924-2.83-5.776-3.56-8.605-1.639c-4.383,2.981-9.454,4.557-14.665,4.557c-15.199,0-27.564-13.337-27.564-29.732
		c0-16.395,12.365-29.731,27.564-29.731c4.773,0,9.475,1.337,13.597,3.866c2.915,1.788,6.73,0.876,8.519-2.04
		c1.789-2.916,0.876-6.729-2.04-8.518c-6.073-3.727-13.015-5.696-20.076-5.696c-22.029,0-39.952,18.896-39.952,42.12
		S131.566,403.681,153.595,403.681z"/>
	<path d="M218.949,403.681c7.706,0,15.186-2.317,21.631-6.701c2.829-1.924,3.562-5.777,1.638-8.605
		c-1.923-2.83-5.777-3.56-8.605-1.639c-4.383,2.981-9.454,4.557-14.665,4.557c-13.229,0-24.308-10.107-26.958-23.537h41.823
		c3.421,0,6.194-2.773,6.194-6.194s-2.773-6.194-6.194-6.194H191.99c2.65-13.431,13.729-23.537,26.958-23.537
		c4.773,0,9.474,1.337,13.596,3.866c2.916,1.789,6.73,0.876,8.519-2.04c1.789-2.915,0.876-6.729-2.04-8.518
		c-6.072-3.727-13.015-5.696-20.076-5.696c-22.029,0-39.952,18.896-39.952,42.12S196.919,403.681,218.949,403.681z"/>
	<path d="M286.069,403.681c22.029,0,39.951-18.895,39.951-42.12s-17.922-42.12-39.951-42.12s-39.952,18.896-39.952,42.12
		S264.04,403.681,286.069,403.681z M286.069,331.83c15.198,0,27.563,13.337,27.563,29.731c0,16.395-12.365,29.732-27.563,29.732
		c-15.199,0-27.564-13.337-27.564-29.732C258.505,345.167,270.87,331.83,286.069,331.83z"/>
</g>
<g>
</g>
<g>
</g>
<g>
</g>
<g>
</g>
<g>
</g>
<g>
</g>
<g>
</g>
<g>
</g>
<g>
</g>
<g>
</g>
<g>
</g>
<g>
</g>
<g>
</g>
<g>
</g>
<g>
</g>
</svg>
